<?xml version="1.0" encoding="UTF-8" standalone="no"?>
<svg
   xmlns:dc="http://purl.org/dc/elements/1.1/"
   xmlns:cc="http://creativecommons.org/ns#"
   xmlns:rdf="http://www.w3.org/1999/02/22-rdf-syntax-ns#"
   xmlns:svg="http://www.w3.org/2000/svg"
   xmlns="http://www.w3.org/2000/svg"
   xmlns:sodipodi="http://sodipodi.sourceforge.net/DTD/sodipodi-0.dtd"
   xmlns:inkscape="http://www.inkscape.org/namespaces/inkscape"
   width="64"
   height="64"
   viewBox="0 0 16.933333 16.933334"
   version="1.1"
   id="svg8"
   inkscape:version="0.92.3 (2405546, 2018-03-11)"
   sodipodi:docname="15-Coordinator.svg"
   inkscape:export-filename="/home/wanzabuyumna/@WANZ_DESIGN/NICON STUDIO MAGANG/Style Line/Style Line/Icon 8/Icon 8.png"
   inkscape:export-xdpi="96"
   inkscape:export-ydpi="96">
  <defs
     id="defs2" />
  <sodipodi:namedview
     id="base"
     pagecolor="#ffffff"
     bordercolor="#959595"
     borderopacity="1"
     inkscape:pageopacity="0"
     inkscape:pageshadow="2"
     inkscape:zoom="8.0000004"
     inkscape:cx="10.265603"
     inkscape:cy="30.688295"
     inkscape:document-units="px"
     inkscape:current-layer="layer1"
     inkscape:document-rotation="0"
     showgrid="false"
     units="px"
     inkscape:window-width="1920"
     inkscape:window-height="1040"
     inkscape:window-x="0"
     inkscape:window-y="0"
     inkscape:window-maximized="1"
     inkscape:pagecheckerboard="0" />
  <metadata
     id="metadata5">
    <rdf:RDF>
      <cc:Work
         rdf:about="">
        <dc:format>image/svg+xml</dc:format>
        <dc:type
           rdf:resource="http://purl.org/dc/dcmitype/StillImage" />
      </cc:Work>
    </rdf:RDF>
  </metadata>
  <g
     inkscape:label="15-Coordinator"
     inkscape:groupmode="layer"
     id="layer1">
    <path
       style="color:#000000;font-style:normal;font-variant:normal;font-weight:normal;font-stretch:normal;font-size:medium;line-height:normal;font-family:sans-serif;font-variant-ligatures:normal;font-variant-position:normal;font-variant-caps:normal;font-variant-numeric:normal;font-variant-alternates:normal;font-feature-settings:normal;text-indent:0;text-align:start;text-decoration:none;text-decoration-line:none;text-decoration-style:solid;text-decoration-color:#000000;letter-spacing:normal;word-spacing:normal;text-transform:none;writing-mode:lr-tb;direction:ltr;text-orientation:mixed;dominant-baseline:auto;baseline-shift:baseline;text-anchor:start;white-space:normal;shape-padding:0;clip-rule:nonzero;display:inline;overflow:visible;visibility:visible;opacity:1;isolation:auto;mix-blend-mode:normal;color-interpolation:sRGB;color-interpolation-filters:linearRGB;solid-color:#000000;solid-opacity:1;vector-effect:none;fill:#000000;fill-opacity:1;fill-rule:nonzero;stroke:none;stroke-width:2.00000119;stroke-linecap:round;stroke-linejoin:miter;stroke-miterlimit:4;stroke-dasharray:none;stroke-dashoffset:0;stroke-opacity:1;color-rendering:auto;image-rendering:auto;shape-rendering:auto;text-rendering:auto;enable-background:accumulate"
       d="M 6.0019531,2 C 3.8032508,2 2,3.7646242 2,6.0019531 v 6.0019529 c 0,2.233776 1.8032508,3.990235 4.0019531,3.990235 h 8.5839849 l 1.863281,1.86914 c -0.29367,0.992428 -0.447266,2.046337 -0.447266,3.134766 v 1.533203 c -1.190854,0.691465 -2,1.984882 -2,3.466797 0,2.216806 1.804724,4.001953 4.001953,4.001953 h 0.914063 C 19.61824,31.41377 20.65498,32.603156 22,33.5 v 1.496094 c -0.03779,0.0014 -0.07461,0.0042 -0.109375,0.01172 -0.104315,0.01134 -0.216627,0.04291 -0.316406,0.08789 l -2.429688,1.132813 C 18.7885,36.080736 18.409498,36.001953 17.996094,36.001953 H 17 v -1.003906 c -0.0022,-0.552265 -0.451641,-0.99821 -1.003906,-0.996094 H 8.0019531 C 7.4497264,33.999853 7.000239,34.445782 6.9980469,34.998047 V 36 H 6.0019531 C 4.3377138,36 3,37.353388 3,38.998047 l -0.00391,5.765625 C 2.3885723,45.310003 2,46.109492 2,46.996094 2,47.770368 2.2846168,48.466608 2.7636719,48.998047 2.2843144,49.527294 2,50.221442 2,50.996094 2,51.770368 2.2846168,52.466608 2.7636719,52.998047 2.2843144,53.527332 2,54.219489 2,54.994141 c 0,0.886639 0.3924787,1.693286 1,2.242187 v 1.765625 c 0,1.644662 1.3338209,2.996094 3.0019531,2.996094 H 17.996094 c 0.89401,0 1.69641,-0.391534 2.24414,-1 h 5.341797 l 0.710938,0.710937 c 0.390085,0.387742 1.020071,0.387742 1.410156,0 l 0.714844,-0.714843 H 40.001953 C 41.679799,60.994141 43,59.642708 43,57.998047 v -3.796875 c 1.548699,-0.140221 3.013647,-1.289684 3.880859,-2.179688 l 7.833985,-7.486328 c 0.537146,-0.558841 0.81344,-1.256597 0.855468,-1.958984 2.484437,-0.397002 4.521158,-2.0957 5.189454,-4.589844 l 1.033203,-3.859375 c 0.855836,-3.193928 -1.011435,-6.487323 -4.244141,-7.353515 0.425613,-1.588576 -0.509326,-3.244424 -2.11914,-3.675782 -1.609779,-0.431357 -3.250131,0.538304 -3.675782,2.126953 l -1.808594,6.761719 c -0.0076,0.02646 -0.179543,0.591884 -0.486328,1.320313 -0.291023,0.690974 -0.684232,1.435088 -1.076172,1.876953 -0.745436,6.8e-4 -1.493144,0.276674 -2.08789,0.800781 l -4.814453,3.761719 c -1.04281,-0.724989 -2.394212,-1.520661 -3.458985,-2.033203 l -5.59375,-2.617188 c -0.132283,-0.06161 -0.27591,-0.09375 -0.421875,-0.09375 L 31.998047,33.5 c 1.32102,-0.857348 2.387769,-2.082123 3.087891,-3.498047 h 0.912109 C 38.194975,30.001953 40,28.216806 40,26 40,24.521449 39.188343,23.227717 38.001953,22.535156 V 21 c 0,-6.076535 -4.886324,-10.999811 -10.998047,-11 -2.677002,-3.78e-5 -5.107327,0.930149 -7.005859,2.503906 V 6.0019531 C 19.99816,3.7681391 18.192843,2 15.994141,2 Z m 0,2.0019531 h 9.9941409 c 1.125241,0 2.003982,0.8942615 2.003906,2 V 16.578125 L 15.708984,14.291016 C 15.520386,14.105063 15.26502,14.000441 15,14.001953 H 6.0019531 c -1.0940598,0 -2,-0.874722 -2,-2 V 6.0019531 c 0,-1.1057385 0.8746835,-2.0000756 2,-2 z M 7,8 C 6.4477354,8 6,8.4477354 6,9 6,9.5522646 6.4477354,10 7,10 7.5523024,10 8,9.5522646 8,9 8,8.4477354 7.5523024,8 7,8 Z m 4,0 c -0.552302,0 -1,0.4477354 -1,1 0,0.5522646 0.447698,1 1,1 0.552265,0 1,-0.4477354 1,-1 0,-0.5522646 -0.447735,-1 -1,-1 z m 4,0 c -0.552303,0 -1,0.4477354 -1,1 0,0.5522646 0.447697,1 1,1 0.552264,0 1,-0.4477354 1,-1 0,-0.5522646 -0.447736,-1 -1,-1 z m 40,8 c -0.582652,0.01134 -1,0.44194 -1,0.996094 v 2 c 0,0.666443 0.500157,1.001084 1,1.001953 0.499843,-8.69e-4 1,-0.33566 1,-1.001953 v -2 C 56,16.44194 55.58269,16.010847 55,16 Z m -5.408203,1.583984 c -0.903988,-0.0076 -1.340873,1.089974 -0.716797,1.708985 l 1.417969,1.410156 c 0.986683,0.917518 2.330309,-0.464972 1.417969,-1.410156 L 50.292969,17.875 c -0.188221,-0.193512 -0.431163,-0.291035 -0.701172,-0.291016 z m 10.816406,0 c -0.269858,-1.9e-5 -0.512913,0.0975 -0.701172,0.291016 l -1.417969,1.417969 c -0.91234,0.945222 0.431286,2.327674 1.417969,1.410156 L 61.125,19.292969 c 0.624076,-0.619011 0.187077,-1.715958 -0.716797,-1.708985 z m -36.875,3.736328 C 24.594494,21.722495 25.649462,22 27.005859,22 c 1.094248,0 2.343118,-0.215045 3.464844,-0.677734 0.735382,1.325064 2.033386,2.252517 3.53125,2.572265 v 2.166016 c 0,3.855155 -3.134967,6.9375 -6.996094,6.9375 C 23.106104,32.998047 20,29.868799 20,26.060547 v -2.166016 c 1.477341,-0.300094 2.848239,-1.285662 3.533203,-2.574219 z m -5.529297,2.675782 0.0039,2.064453 c 0,0.666633 0.06756,1.312026 0.207032,1.9375 h -0.210938 c -1.116397,0 -2,-0.909027 -2,-2.001953 0,-1.092964 0.883622,-2 2,-2 z m 17.998047,0 c 1.115452,0.0011 2,0.907678 2,2 0,1.092926 -0.885594,2 -2.001953,2 h -0.210938 c 0.138334,-0.624226 0.212891,-1.269897 0.212891,-1.935547 z M 24,34.490234 c 0.941065,0.331843 1.950955,0.511719 3.005859,0.511719 1.054677,0 2.052749,-0.179549 2.992188,-0.509765 L 30,36.585938 c -0.802356,0.80451 -1.604638,1.607788 -2.408203,2.412109 H 26.417969 L 24,36.576172 Z M 48.367188,37.1875 c 0.261051,-0.0074 0.496733,0.0883 0.683593,0.275391 l 4.251953,4.251953 c 0.354898,0.354897 0.395672,0.978474 -0.03516,1.425781 L 45.46875,50.59375 c -1.098671,1.097688 -2.095688,1.675041 -3.082031,1.625 -0.937021,-0.04762 -1.842131,-0.752287 -2.742188,-1.652344 -0.935962,-0.928138 -2.360468,0.451367 -1.417969,1.416016 1.028866,1.039861 1.92065,1.633945 2.769532,1.958984 v 4.056641 c 0,0.538129 -0.424818,1.003906 -0.996094,1.003906 l -9.59375,-0.0039 0.298828,-0.294922 c 0.226394,-0.22337 0.334795,-0.540899 0.289063,-0.855469 l -1.921875,-13.496094 0.941406,-0.923828 0.279297,0.279297 c 0.423421,0.423232 1.121377,0.382283 1.492187,-0.08789 l 3.853516,-4.814453 1.519531,0.710937 c 1.088087,0.524149 3.009672,1.690578 3.712891,2.257813 0.359811,0.291779 0.873129,0.299092 1.240234,0.01562 l 5.458984,-4.267578 C 47.8243,37.298492 48.106019,37.194095 48.367188,37.1875 Z m -26.578126,0.01563 2.794922,2.792969 -1.501953,1.501953 -2.085937,-2.607422 C 20.980976,38.469888 20.879,38.073306 20.707031,37.712891 Z m 10.423829,0.0039 1.554687,0.726563 -2.853516,3.568359 L 29.412109,40 Z M 6.0019531,38 h 0.9960938 v 2.001953 c 0.00223,0.552261 0.4516417,0.99821 1.0039062,0.996094 H 15.996094 C 16.548321,41.000148 16.997807,40.554214 17,40.001953 v -2 h 0.996094 c 0.571276,0 1.005859,0.424818 1.005859,0.996094 V 59.003906 C 19.001953,59.547591 18.56737,60 17.996094,60 H 6.0019531 c -0.532233,0 -1.001096,-0.42478 -1,-0.996094 L 5,58.001953 H 6.9960938 C 8.6408685,58.001953 10,56.662903 10,54.996094 10,54.221404 9.7138837,53.527332 9.234375,52.998047 9.7133167,52.466608 10,51.770406 10,50.996094 10,49.924749 9.4512028,48.997846 8.6132812,48.46875 8.8612186,48.032555 9,47.535017 9,46.996094 9,45.329284 7.6408685,44 5.9960938,44 H 5 V 38.998047 C 5,38.450204 5.4306397,37.999962 6.0019531,38 Z m 20.4121089,3 h 1.173829 l 1.011718,1.013672 -1.59375,1.5625 -1.583984,-1.583984 z m -5.412109,1.09375 1.222656,1.527344 c 0.370394,0.464277 1.061673,0.505075 1.484375,0.08789 l 0.302735,-0.302734 0.871093,0.882812 -1.875,13.560547 c -0.04762,0.313323 0.05593,0.630704 0.279297,0.855469 L 23.582031,59 h -2.580078 z m 5.673828,3.837891 c 0.206362,0.07143 0.40122,0.06999 0.587891,0.01367 l 1.671875,11.703126 -1.9375,1.933593 -1.939453,-1.933593 z M 5.0019531,46 H 5.9960938 C 6.5674449,46 7,46.452333 7,46.996094 7,47.539817 6.5674449,48 5.9960938,48 H 5.0019531 C 4.4306019,48 3.9980469,47.539854 3.9980469,46.996094 3.9980469,46.452371 4.4306019,46 5.0019531,46 Z m 1.9941407,4 C 7.5674449,49.999962 8,50.452333 8,50.996094 8,51.539817 7.5674449,52 6.9960938,52 H 5.0019531 C 4.4306019,52 3.9980469,51.539817 3.9980469,50.996094 3.9980469,50.454412 4.4288756,50.005355 5,50.001953 5.6689386,50.002142 6.3304809,50 6.9960938,50 Z m -2,4.001953 h 0.00195 0.00586 1.9980469 c 0.5711244,0.0034 1,0.452459 1,0.994141 C 8.0019531,55.539854 7.5693981,56 6.9980469,56 H 5.0039062 C 4.4325551,56 4,55.539854 4,54.996094 4,54.455053 4.4289168,54.006366 4.9960938,54.001953 Z"
       transform="scale(0.26458334)"
       id="path864"
       inkscape:connector-curvature="0"
       sodipodi:nodetypes="ccccccccccccccccccccccccccccccccccccccccccccccccccccccccccccccccccccccccccccccccccccccccccccccccccccccccccccccccccccccccccccccccccccccccccccccccccccccccccccccccccccccccccccccccccccccccccccccccccccccccccccccccccccccccccccccccccccccccccccccccccccccc" />
  </g>
</svg>
