<?xml version="1.0" encoding="UTF-8" standalone="no"?>
<svg
   xmlns:dc="http://purl.org/dc/elements/1.1/"
   xmlns:cc="http://creativecommons.org/ns#"
   xmlns:rdf="http://www.w3.org/1999/02/22-rdf-syntax-ns#"
   xmlns:svg="http://www.w3.org/2000/svg"
   xmlns="http://www.w3.org/2000/svg"
   xmlns:sodipodi="http://sodipodi.sourceforge.net/DTD/sodipodi-0.dtd"
   xmlns:inkscape="http://www.inkscape.org/namespaces/inkscape"
   width="64"
   height="64"
   viewBox="0 0 16.933333 16.933334"
   version="1.1"
   id="svg8"
   inkscape:version="0.92.3 (2405546, 2018-03-11)"
   sodipodi:docname="13-Meeting.svg"
   inkscape:export-filename="/home/wanzabuyumna/@WANZ_DESIGN/NICON STUDIO MAGANG/Style Line/Style Line/Icon 8/Icon 8.png"
   inkscape:export-xdpi="96"
   inkscape:export-ydpi="96">
  <defs
     id="defs2" />
  <sodipodi:namedview
     id="base"
     pagecolor="#ffffff"
     bordercolor="#959595"
     borderopacity="1"
     inkscape:pageopacity="0"
     inkscape:pageshadow="2"
     inkscape:zoom="9.0666656"
     inkscape:cx="26.238826"
     inkscape:cy="28.561339"
     inkscape:document-units="px"
     inkscape:current-layer="layer1"
     inkscape:document-rotation="0"
     showgrid="false"
     units="px"
     inkscape:window-width="1920"
     inkscape:window-height="1040"
     inkscape:window-x="0"
     inkscape:window-y="0"
     inkscape:window-maximized="1"
     inkscape:pagecheckerboard="0" />
  <metadata
     id="metadata5">
    <rdf:RDF>
      <cc:Work
         rdf:about="">
        <dc:format>image/svg+xml</dc:format>
        <dc:type
           rdf:resource="http://purl.org/dc/dcmitype/StillImage" />
      </cc:Work>
    </rdf:RDF>
  </metadata>
  <g
     inkscape:label="13-Meeting"
     inkscape:groupmode="layer"
     id="layer1">
    <path
       style="color:#000000;display:inline;opacity:1;fill:#000000;stroke-width:3.77952743;stroke-linecap:round;stroke-linejoin:round"
       d="m 24,2 c -3.329367,7.937e-4 -6,2.7008004 -6,6.0019531 0,1.7007875 0.71535,3.2373659 1.859375,4.3320309 -2.922936,0.639571 -5.413529,2.174421 -6.724609,4.445313 -2.170092,3.758702 -0.624156,9.306311 0.375,12.630859 0.309165,1.02807 0.821127,1.887083 1.535156,2.480469 0.714028,0.593348 1.619129,0.887484 2.55664,0.800781 0.238112,-0.02268 0.486547,-0.06705 0.710938,-0.132812 l 0.695312,5.560547 c 0.196537,1.570885 1.340396,2.878906 2.990235,2.878906 h 0.279297 L 18.111328,48.285156 15.783203,45.375 C 15.119972,44.546036 14.573347,43.734601 13.826172,43.130859 15.139444,42.22604 15.996094,40.701908 15.996094,38.996094 15.996094,36.215304 13.74754,34 10.998047,34 8.248516,34 6,36.246523 6,38.996094 c 0,1.15748 0.3883568,2.227202 1.0546875,3.078125 -1.1663626,0.183307 -2.2101643,0.702826 -3.0527344,1.457031 v -3.544922 c 0.00197,-0.555364 -0.4524487,-1.00606 -1.0078125,-1.003906 -0.5524535,0.002 -0.9982859,0.451453 -0.9960937,1.003906 v 15 0.0078 0.0078 c 0,3.860787 3.1118109,6.998047 7,6.998047 17.3265261,-0.01134 34.6616681,-0.0077 51.9960941,-0.0039 0.523956,0.002 1.007812,-0.439491 1.007812,-0.996094 l -0.0039,-15.017578 c 0.002,-0.555326 -0.448543,-1.006099 -1.003906,-1.003906 -0.552416,0.002 -0.998248,0.451452 -0.996094,1.003906 v 3.533203 c -0.84291,-0.75462 -1.885615,-1.262269 -3.052735,-1.445313 0.666483,-0.85096 1.056641,-1.920644 1.056641,-3.078124 0,-2.74957 -2.248592,-4.998047 -4.998047,-4.998047 -2.74953,0 -5.001953,2.248477 -5.001953,4.998047 0,1.705927 0.863959,3.222134 2.179688,4.126953 -0.792794,0.640478 -1.30165,1.421036 -1.964844,2.25 L 47.884766,51.785156 40.863281,39.5 c -0.17537,-0.305386 -0.498226,-0.493839 -0.849609,-0.5 -3.523807,0 -7.424346,-1.81e-4 -11.234375,-0.002 0.108094,-0.279685 0.170433,-0.572084 0.208984,-0.878906 L 29.755859,32 h 6.476563 l -2.056641,3.433594 c -0.8016,1.169273 1.060016,2.285737 1.712891,1.027344 L 38.5625,32 h 7.875 l 2.673828,4.460938 c 0.652876,1.258393 2.514529,0.142118 1.712891,-1.027344 L 48.767578,32 H 59.003906 C 60.648605,32 62.000038,30.672049 62,28.996094 V 4.9980469 C 61.999958,3.3533476 60.675931,1.9999622 59.003906,2 Z m 35.005859,1.9921875 c 0.571272,0 0.996094,0.4774814 0.996094,1.0058594 V 28.996094 C 60.001953,29.524472 59.577131,30 59.005859,30 H 30.009766 l 0.457031,-3.640625 c 0.204472,0.219591 0.416617,0.418256 0.664062,0.607422 C 31.996674,27.628667 33.100069,28 34.601562,28 H 39 c 1.434217,0 2.650962,-1.020055 2.939453,-2.384766 l 6.578125,-3.800781 c 1.1568,-0.669203 0.153083,-2.403579 -1.003906,-1.734375 l -5.914063,3.416016 C 41.077203,22.597813 40.104529,21.998047 39,21.998047 h -1.697266 c -0.258519,0 -0.467948,-0.13292 -0.693359,-0.369141 -0.287622,-0.301228 -0.623913,-0.834577 -0.998047,-1.505859 -0.748195,-1.342601 -1.685445,-3.244039 -3.277344,-4.835938 -1.229669,-1.229707 -2.755486,-2.213827 -4.384765,-2.77539 1.257146,-1.102186 2.054687,-2.7147169 2.054687,-4.5097659 0,-1.5392881 -0.5855,-2.942666 -1.542968,-4.0078125 z M 53.003906,5.9941406 C 49.149616,5.9942733 45.998047,9.1458649 45.998047,13 c 0.002,0.552492 0.451453,0.998248 1.003906,0.996094 h 0.08203 c 0.294804,1.745839 1.353899,3.291488 2.916016,4.193359 0.479017,0.27515 1.090123,0.117916 1.365234,-0.361328 l 0.05273,-0.08984 c 0.494627,0.171591 1.027902,0.262853 1.583984,0.261719 2.769109,-0.0038 5.001953,-2.248478 5.001953,-4.998047 0,-2.41062 -1.710942,-4.4388224 -4.003906,-4.9023436 V 6.9980469 c 0.0021,-0.5524536 -0.443523,-1.0021118 -0.996094,-1.0039063 z m -13.001953,0.00781 c -1.333682,0 -1.333682,2 0,2 h 3 c 1.333644,0 1.333644,-2 0,-2 z m -4,3.9999999 c -1.333642,0 -1.333642,2 0,2 h 7 c 1.333644,0 1.333644,-2 0,-2 z M 54,10.169922 c 1.158421,0.411893 2.001953,1.52143 2.001953,2.833984 0,1.645266 -1.350841,2.998047 -3,2.998047 -0.187842,0 -0.369237,-0.02269 -0.546875,-0.05859 l 1.41211,-2.447265 c 0.09109,-0.154205 0.130859,-0.325791 0.130859,-0.507813 z m -30.998047,3.828125 c 0.666671,-9.5e-5 1.333404,0 2,0 2.056856,0 4.242643,1.037563 5.914063,2.708984 1.36407,1.364069 2.155541,2.975369 2.945312,4.392578 0.394922,0.708585 0.775061,1.363436 1.298828,1.91211 C 35.683923,23.560393 36.396303,24 37.300781,24 h 1.697266 c 0.570977,0 1.003906,0.460157 1.003906,0.996094 C 40.001953,25.532031 39.569213,26 38.998047,26 H 34.599609 C 33.500031,26 32.855285,25.769092 32.347656,25.380859 31.84668,24.997917 31.390304,24.372174 30.826172,23.425781 L 30.988281,22.125 c 0.08769,-0.599811 -0.374192,-1.138975 -0.980469,-1.144531 -0.512088,-7.94e-4 -0.942046,0.385315 -0.996093,0.894531 l -2.001953,15.996094 c -0.08957,0.715351 -0.503952,1.122455 -1.003907,1.126953 -0.327307,-4.16e-4 -0.68291,4.91e-4 -1.003906,0 v -8.007813 c 0.0038,-0.562999 -0.454617,-1.007952 -1.017578,-0.998046 -0.549203,0.01134 -0.987827,0.448805 -0.982422,0.998046 V 39 h -1.003906 c -0.477732,0 -0.914028,-0.402001 -1.003906,-1.121094 l -2,-16.003906 c -0.166678,-1.324196 -2.153006,-1.074423 -1.986329,0.25 l 1.046876,8.392578 c -0.202963,0.101669 -0.416143,0.166649 -0.619141,0.185547 -0.397833,0.0378 -0.773161,-0.06495 -1.113281,-0.347656 -0.340158,-0.282709 -0.672485,-0.780785 -0.894532,-1.519531 -1.276989,-4.248684 -2.106261,-8.381365 -0.560546,-11.058594 1.283792,-2.223609 4.361548,-3.779203 8.134765,-3.779297 z m 26.123047,0 h 2.144531 l -1.072265,1.851562 C 49.688881,15.357515 49.332194,14.708825 49.125,13.998047 Z M 36.001953,14 c -1.333642,0 -1.333642,2 0,2 h 7 c 1.333644,0 1.333644,-2 0,-2 z m -11,4 c -1.333682,0 -1.333682,2 0,2 H 27 c 0.666822,0 1,-0.499893 1,-1 0,-0.500145 -0.332989,-1 -1,-1 z m 14.416016,22.996094 7.125,12.464844 L 44.517578,56 h -3.232422 l 0.69336,-2.775391 C 42.3285,51.915116 40.345897,51.418508 40.037109,52.738281 l -1.001953,3.990235 C 38.382129,57.31206 38,58.108795 38,59 c 0,0.349606 0.06158,0.679161 0.173828,0.992188 l -24.451172,-0.002 2.285156,-3.992187 c 4.664065,-0.0021 9.328125,-0.002 13.992188,-0.002 0.215433,-2.65e-4 0.425045,-0.06996 0.597656,-0.199219 l 4,-2.996094 c 0.133796,-0.100157 0.237476,-0.232828 0.306641,-0.384765 l 3.699219,-8.03711 c 0.04649,-0.116031 0.07384,-0.24196 0.07422,-0.375 0.002,-0.552264 -0.4436,-1.000063 -0.996093,-1.001953 h -10.96875 c -0.359433,-0.001 -0.691982,0.190104 -0.871094,0.501953 l -3.714844,6.494141 h -2.648437 l -0.02539,-0.03516 5.126953,-8.964844 c 4.945058,-0.0033 9.891637,-0.0023 14.837891,-0.002 z M 8.0019531,44.001953 h 1.9999999 c 1.369247,0 2.017941,0.268714 2.472656,0.611328 0.50967,0.384151 0.984922,1.061079 1.742188,2.007813 l 4.001953,4.998047 c 0.189732,0.23811 0.478724,0.377331 0.783203,0.376953 h 4 c 0.571276,0 0.996094,0.43263 0.996094,1.003906 0,0.571313 -0.424818,0.996094 -0.996094,0.996094 h -7.587891 l -2.708984,-2.708985 c -0.390009,-0.387704 -1.020147,-0.387704 -1.410156,0 -0.39258,0.390879 -0.39258,1.02709 0,1.417969 l 2.730469,2.730469 -2.609375,4.5625 H 8.9980469 c -2.7872132,0 -4.9960938,-2.238115 -4.9960938,-5.005859 v -7 c 0,-2.186459 1.7667717,-3.990424 4,-3.990235 z m 45.9941409,5.994141 h 2 c 2.194129,0 4.001953,1.758902 4.001953,3.992187 v 6.003907 l -8.587891,0.002 1.294922,-1.294922 c 0.392617,-0.390879 0.392617,-1.02709 0,-1.417969 -0.390841,-0.392617 -1.02709,-0.392617 -1.417969,0 l -2.701171,2.708984 H 40.996094 C 40.424743,59.990234 40,59.532252 40,59 c 0,-0.547839 0.424743,-1 0.996094,-1 h 4.001953 c 0.30463,1.89e-4 0.593357,-0.138843 0.783203,-0.376953 l 4,-5.007813 c 0.75738,-0.946733 1.232478,-1.623661 1.742188,-2.007812 0.509744,-0.384151 1.241497,-0.611404 2.472656,-0.611328 z m -28.171875,2 h 6.507812 l -2.664062,2 H 25.826172 C 25.937668,53.683527 25.998047,53.348926 25.998047,53 c 0,-0.351118 -0.06082,-0.689223 -0.173828,-1.003906 z"
       transform="scale(0.26458334)"
       id="path852"
       inkscape:connector-curvature="0"
       sodipodi:nodetypes="cccccccccccccccccccccccccccccccccccccccccccccccccccccccccccccccccccccccccccccccccccccccccccccccccccccccccccccccccccccccccccccccccccccccccccccccccccccccccccccccccccccccccccccccccccccccccccccccccccccccccccccccccccccccccccccc" />
  </g>
</svg>
