<?xml version="1.0" encoding="UTF-8" standalone="no"?>
<svg
   xmlns:dc="http://purl.org/dc/elements/1.1/"
   xmlns:cc="http://creativecommons.org/ns#"
   xmlns:rdf="http://www.w3.org/1999/02/22-rdf-syntax-ns#"
   xmlns:svg="http://www.w3.org/2000/svg"
   xmlns="http://www.w3.org/2000/svg"
   xmlns:sodipodi="http://sodipodi.sourceforge.net/DTD/sodipodi-0.dtd"
   xmlns:inkscape="http://www.inkscape.org/namespaces/inkscape"
   width="64"
   height="64"
   viewBox="0 0 16.933333 16.933334"
   version="1.1"
   id="svg8"
   inkscape:version="0.92.3 (2405546, 2018-03-11)"
   sodipodi:docname="18-Introduction.svg"
   inkscape:export-filename="/home/wanzabuyumna/@WANZ_DESIGN/NICON STUDIO MAGANG/Style Line/Style Line/Icon 8/Icon 8.png"
   inkscape:export-xdpi="96"
   inkscape:export-ydpi="96">
  <defs
     id="defs2" />
  <sodipodi:namedview
     id="base"
     pagecolor="#ffffff"
     bordercolor="#959595"
     borderopacity="1"
     inkscape:pageopacity="0"
     inkscape:pageshadow="2"
     inkscape:zoom="4.0000001"
     inkscape:cx="-31.981091"
     inkscape:cy="1.2848654"
     inkscape:document-units="px"
     inkscape:current-layer="layer1"
     inkscape:document-rotation="0"
     showgrid="false"
     units="px"
     inkscape:window-width="1920"
     inkscape:window-height="1040"
     inkscape:window-x="0"
     inkscape:window-y="0"
     inkscape:window-maximized="1"
     inkscape:pagecheckerboard="0"
     inkscape:snap-global="false">
    <inkscape:grid
       type="xygrid"
       id="grid858" />
  </sodipodi:namedview>
  <metadata
     id="metadata5">
    <rdf:RDF>
      <cc:Work
         rdf:about="">
        <dc:format>image/svg+xml</dc:format>
        <dc:type
           rdf:resource="http://purl.org/dc/dcmitype/StillImage" />
      </cc:Work>
    </rdf:RDF>
  </metadata>
  <g
     inkscape:label="18-Introduction"
     inkscape:groupmode="layer"
     id="layer1">
    <path
       style="color:#000000;font-style:normal;font-variant:normal;font-weight:normal;font-stretch:normal;font-size:medium;line-height:normal;font-family:sans-serif;font-variant-ligatures:normal;font-variant-position:normal;font-variant-caps:normal;font-variant-numeric:normal;font-variant-alternates:normal;font-feature-settings:normal;text-indent:0;text-align:start;text-decoration:none;text-decoration-line:none;text-decoration-style:solid;text-decoration-color:#000000;letter-spacing:normal;word-spacing:normal;text-transform:none;writing-mode:lr-tb;direction:ltr;text-orientation:mixed;dominant-baseline:auto;baseline-shift:baseline;text-anchor:start;white-space:normal;shape-padding:0;clip-rule:nonzero;display:inline;overflow:visible;visibility:visible;opacity:1;isolation:auto;mix-blend-mode:normal;color-interpolation:sRGB;color-interpolation-filters:linearRGB;solid-color:#000000;solid-opacity:1;vector-effect:none;fill:#000000;fill-opacity:1;fill-rule:nonzero;stroke:none;stroke-width:2.00000119;stroke-linecap:round;stroke-linejoin:round;stroke-miterlimit:4;stroke-dasharray:none;stroke-dashoffset:0;stroke-opacity:1;paint-order:stroke fill markers;color-rendering:auto;image-rendering:auto;shape-rendering:auto;text-rendering:auto;enable-background:accumulate"
       d="M 35.996094,2 22,2.0039062 c -2.198703,7.561e-4 -4,1.7837484 -4,4.0019532 V 21 c -0.0024,0.564132 0.461448,1.018533 1.025391,1.003906 0.255874,-0.0076 0.499441,-0.113504 0.679687,-0.294922 l 3.697266,-3.705078 H 24 v 0.998047 c 0,2.22599 1.805203,4.001953 4.003906,4.001953 h 12.59375 l 0.433594,0.435547 c -3.482533,0.139843 -7.535129,1.024708 -12.392578,4.490235 l -1.421875,1.046874 c -0.327685,0.0378 -1.605118,0.174849 -3.21875,0.240235 -0.917216,0.03779 -1.885181,0.04409 -2.6875,-0.01563 -0.978973,-0.07143 -1.469517,-0.230923 -1.59375,-0.302734 L 18.810547,28.375 19.289062,27.546875 c 0.276285,-0.476863 0.114515,-1.087514 -0.361328,-1.365234 L 3.5058594,17.138672 C 3.3323791,17.034735 3.1316655,16.985574 2.9296875,16.998047 2.4065631,17.035842 2.0007937,17.469732 2,17.994141 v 25.003906 c 5.669e-4,0.326173 0.1602572,0.631688 0.4277344,0.818359 L 6.84375,46.917969 c 0.4803779,0.336378 1.1457838,0.189231 1.4394531,-0.31836 l 0.2636719,-0.457031 1.503906,1.847656 c -0.3121885,1.601953 0.389492,3.313916 1.929688,4.203125 0.717165,0.41401 1.493506,0.591509 2.265625,0.535157 -0.308032,1.644585 0.426481,3.330245 1.93164,4.199218 1.037141,0.598772 2.215624,0.691841 3.273438,0.330078 0.210898,1.072922 0.886687,2.071136 1.923828,2.669922 1.505196,0.869012 3.334704,0.665618 4.607422,-0.425781 0.337134,0.697066 0.874481,1.281186 1.591797,1.695313 1.271887,0.73429 2.759141,0.708129 3.99414,0.0059 l 0.46875,0.263672 c 1.910892,1.103282 4.36354,0.435338 5.462891,-1.46875 0.414011,-0.717109 0.584591,-1.525268 0.529297,-2.257813 1.624327,0.307843 3.33304,-0.428573 4.203125,-1.935546 0.492246,-0.852621 0.640581,-1.792044 0.472656,-2.695313 1.366602,-0.0189 2.666594,-0.739225 3.394531,-2 0.413707,-0.716523 0.583256,-1.490053 0.525391,-2.261719 1.656794,0.308032 3.338496,-0.433138 4.207031,-1.9375 0.395944,-0.685799 0.56645,-1.45111 0.529297,-2.191406 l 2.714844,-1.642578 0.158203,0.59375 c 0.156472,0.58481 0.79291,0.89741 1.351563,0.664062 l 5.794921,-2.414062 C 61.755033,41.765717 61.99966,41.400957 62,40.996094 v -23 C 61.998001,17.43215 61.530438,16.981329 60.966797,17 c -0.105827,0.0029 -0.210767,0.02269 -0.310547,0.05859 l -11.486328,4.162109 c -0.486879,0.176126 -0.758897,0.694676 -0.626953,1.195313 l 0.3125,1.166015 c -0.97697,0.08957 -1.940823,0.05879 -2.855469,0.0078 V 11 C 46,8.7817949 44.198702,7.0027468 42,7.0019531 L 40,7 V 6.0078125 C 40,3.7649655 38.19491,1.9994898 35.996094,2 Z m 0,2 c 1.109669,-3.78e-4 2.001953,0.8806184 2.001953,2.0058594 v 7.9960936 c 0,1.097953 -0.876637,2 -2.001953,2 H 22.982422 c -0.266079,2.65e-4 -0.521445,0.106324 -0.708984,0.294922 L 20,18.585938 V 6.0058594 c 0,-1.0976126 0.874721,-1.9995843 2,-2 z M 25,9 c -0.552303,0 -1,0.4477354 -1,1 0,0.552265 0.447697,1 1,1 0.552264,-3e-6 1,-0.447735 1,-1 0,-0.5522646 -0.447736,-1.0000026 -1,-1 z m 4,0 c -0.552302,0 -1,0.4477354 -1,1 0,0.552265 0.447698,1 1,1 0.552265,0 1,-0.447735 1,-1 0,-0.5522646 -0.447735,-1 -1,-1 z m 4,0 c -0.552265,-2.6e-6 -1,0.4477354 -1,1 0,0.552265 0.447735,1 1,1 0.552302,0 1,-0.447735 1,-1 0,-0.5522646 -0.447698,-1.0000026 -1,-1 z m 8.574219,16.425781 c 0.508233,-0.0076 0.997872,0.0086 1.472656,0.03125 l 1.248047,1.251953 c 0.180283,0.181796 0.423851,0.285032 0.679687,0.292969 C 45.53859,27.017071 46.002343,26.564132 46,26 v -0.398438 c 1.140926,0.05934 2.260166,0.07135 3.378906,-0.06055 l 4.158203,15.523437 -2.800781,1.695313 c -0.247181,-0.389065 -0.57848,-0.792026 -1.191406,-1.203125 -2.556662,-1.476095 -4.897901,-2.829368 -7.259766,-4.19336 1.141807,-0.274269 2.247923,-0.854846 2.847656,-1.908203 0.398402,-0.668313 -0.08491,-1.517676 -0.863281,-1.513672 -0.36737,4.91e-4 -0.704632,0.202242 -0.878906,0.525391 -0.235843,0.414576 -0.80574,0.777216 -1.638672,0.966797 -0.850167,0.192756 -1.822768,0.189138 -2.816406,-0.0078 l -2.609375,-1.507812 c -1.07074,-0.618179 -1.968293,-0.735491 -2.753906,-0.56836 -0.686022,0.14589 -1.315022,0.537063 -1.785157,0.767579 -1.925292,0.944087 -5.430068,2.938849 -5.441406,2.945312 -1.125544,0.619541 -2.269939,0.49945 -2.892578,-0.347656 -0.641802,-0.873146 -0.47459,-2.123488 0.427734,-2.789063 l 5.919922,-4.371093 c 4.701165,-3.352934 8.574408,-4.092207 11.773438,-4.128907 z m -23.759766,4.677735 0.90625,0.523437 c 0.720113,0.415748 1.762061,0.526585 2.443359,0.576172 0.924702,0.06728 1.95269,0.05531 2.916016,0.01563 0.03931,-0.0016 0.06421,-0.0078 0.103516,-0.0078 l -1.492188,1.099609 c -1.787112,1.318272 -2.147776,3.819112 -0.847656,5.587891 1.303521,1.773316 3.610913,1.946403 5.476562,0.919921 2e-6,0 3.560304,-2.023929 5.34375,-2.898437 0.611341,-0.299717 0.917403,-0.527146 1.322266,-0.613281 0.191622,-0.0514 0.613708,-0.06923 1.335938,0.347656 4.350691,2.509375 8.69568,5.022827 13.042968,7.529297 0.940952,0.543269 1.295081,1.757908 0.732422,2.732422 -0.548863,0.950626 -1.75787,1.293127 -2.732422,0.730468 -1.732648,-1.007244 -3.466468,-1.99787 -5.197265,-2.998046 -0.173103,-0.103184 -0.353768,-0.147239 -0.554688,-0.134766 -0.990312,0.06463 -1.311707,1.372434 -0.449219,1.863281 1.176721,0.676573 2.341551,1.352069 3.515626,2.03125 0.935962,0.573921 1.225301,1.762437 0.685546,2.697266 -0.56262,0.974513 -1.792125,1.280038 -2.730468,0.738281 -1.474356,-0.850961 -3.049965,-1.760561 -4.333985,-2.501953 -0.17348,-0.103937 -0.350718,-0.143334 -0.552734,-0.130859 -1.000555,0.06123 -1.306568,1.361524 -0.443359,1.867187 1.159407,0.667616 2.317986,1.334816 3.476562,2.003906 0.925153,0.545688 1.274138,1.757832 0.714844,2.726563 -0.562621,0.974494 -1.79273,1.271861 -2.730469,0.730468 -1.733178,-1.001427 -3.464302,-2.000577 -5.199219,-3 -1.037858,-0.595162 -2.216454,-0.68825 -3.273437,-0.326171 -0.215433,-1.097159 -0.882593,-2.072971 -1.919922,-2.671875 -0.852019,-0.491906 -1.795874,-0.640985 -2.699219,-0.47461 -0.0189,-1.36611 -0.734487,-2.66614 -1.996094,-3.394531 -0.717694,-0.41435 -1.513714,-0.581353 -2.267578,-0.527344 0.325418,-1.58914 -0.42347,-3.337437 -1.929687,-4.207031 -1.904164,-1.099313 -4.365493,-0.439244 -5.464844,1.464844 l -2.048828,3.548828 -1.3496095,-1.658203 z m -1.472656,12.304687 c 0.382564,-0.02646 0.773228,0.05082 1.138672,0.261719 0.953612,0.550545 1.295081,1.759861 0.732422,2.734375 l -2.50586,4.337891 c -0.569159,0.970733 -1.788371,1.262347 -2.726562,0.720703 -0.937701,-0.54138 -1.297033,-1.752087 -0.734375,-2.726563 l 2.501953,-4.333984 c 0.351874,-0.609071 0.956144,-0.951961 1.59375,-0.994141 z m 4.203125,4.730469 c 0.382601,-0.02646 0.76737,0.05439 1.132812,0.265625 0.948511,0.547559 1.295043,1.757908 0.732422,2.732422 -0.832516,1.442759 -1.665417,2.88529 -2.498047,4.328125 -0.562659,0.974494 -1.759823,1.295057 -2.734375,0.732422 -0.974513,-0.562651 -1.295079,-1.757909 -0.732422,-2.732422 0.834219,-1.442155 1.666993,-2.885253 2.5,-4.328125 0.351877,-0.609071 0.961966,-0.955905 1.59961,-0.998047 z m 4.683594,3.863281 c 0.382564,-0.02646 0.779088,0.06055 1.144531,0.271485 0.965367,0.557423 1.295043,1.757908 0.732422,2.732421 -0.665499,1.153236 -1.330142,2.306013 -1.996094,3.458985 -0.562621,0.974517 -1.759824,1.295053 -2.734375,0.732422 -0.974514,-0.562636 -1.292976,-1.757848 -0.730469,-2.732422 l 1.996094,-3.460938 c 0.353008,-0.608579 0.951154,-0.959849 1.587891,-1.001953 z m 5.197265,3 c 0.382564,-0.02646 0.779089,0.06216 1.144531,0.273438 0.953123,0.550306 1.295044,1.757904 0.732422,2.732421 l -1,1.732422 c -0.56262,0.974506 -1.753964,1.287242 -2.728515,0.72461 -0.974514,-0.562632 -1.298948,-1.7501 -0.736328,-2.72461 l 1,-1.732422 c 0.351496,-0.60907 0.969711,-0.964908 1.58789,-1.005859 z m 4.144531,2.001953 0.464844,0.267578 c 0.951874,0.549559 1.293128,1.757913 0.730469,2.732422 -0.561902,0.973221 -1.791911,1.273159 -2.728516,0.732422 l 0.998047,-1.728516 c 0.366236,-0.634095 0.540223,-1.316996 0.535156,-2.003906 z"
       transform="scale(0.26458334)"
       id="path842"
       inkscape:connector-curvature="0"
       sodipodi:nodetypes="ccccccccccccccccccccccccccccccccccccccccccccccccccccccccccccccccccccccccccccccccccccccccccccccccccccccccccccccccccccccccccccccccccccccccccccccccccccccccccccccccccccccccccccccccccccccccccc" />
  </g>
</svg>
